<svg xmlns="http://www.w3.org/2000/svg" id="Layer_1" viewBox="0 0 278.7 53.8"><defs><style>      .st0 {        fill: #c08f0a;      }      .st1 {        fill: #fcb911;      }      .st2 {        fill: #3c3a33;      }      .st3 {        fill: #b8b8b9;      }      .st4 {        fill: #8b8d8e;      }      .st5 {        fill: #5f8e2f;      }      .st6 {        fill: #80bb41;      }    </style></defs><path class="st2" d="M80.4,31.8c-.2.2-.5.5-1,.9-.4.4-1,.7-1.7,1.1-.7.3-1.5.7-2.4.9-.9.3-2,.4-3.2.4s-2.8-.2-4-.7c-1.2-.5-2.2-1.2-3.1-2-.9-.9-1.5-1.9-2-3.2-.5-1.2-.7-2.6-.7-4.1s.2-2.6.7-3.8c.5-1.2,1.1-2.2,1.9-3.1.8-.9,1.8-1.6,3-2.1,1.1-.5,2.4-.8,3.8-.8s3,.3,4.1.9c1.2.6,2.1,1.4,2.8,2.4.7,1,1.3,2.2,1.6,3.5.3,1.3.5,2.7.5,4.1h-14.7c0,.8.2,1.6.5,2.3.3.7.8,1.3,1.3,1.8.6.5,1.2.9,1.9,1.2.7.3,1.5.4,2.3.4,1.6,0,2.9-.3,3.9-.8,1-.5,1.8-1.1,2.2-1.6l2,2.2ZM77.2,23.6c-.1-1.4-.6-2.7-1.5-3.7-.9-1-2.2-1.5-3.9-1.5s-1.6.1-2.3.4c-.7.3-1.3.7-1.7,1.2-.5.5-.9,1-1.1,1.7-.3.6-.4,1.3-.4,1.9h11Z"></path><path class="st2" d="M84.9,20v-2.1c0-.6,0-1.2,0-1.9h3.5v2.8c.4-.3.7-.7,1-1.1.3-.4.8-.7,1.3-1.1s1.1-.6,1.8-.8c.7-.2,1.5-.3,2.3-.3,2.4,0,4.2.7,5.4,2.1,1.2,1.4,1.8,3.3,1.8,5.8v11.2h-3.6v-10.9c0-1.7-.4-3-1.1-3.8-.7-.8-1.8-1.2-3.2-1.2s-1.9.2-2.6.6c-.7.4-1.3,1-1.7,1.7-.4.7-.7,1.5-.9,2.3-.2.9-.3,1.8-.3,2.7v8.7h-3.6v-14.6Z"></path><path class="st2" d="M118.4,32.3c-.7.9-1.6,1.6-2.7,2.1-1.1.5-2.3.7-3.5.7s-1.5-.1-2.3-.3c-.8-.2-1.5-.5-2.1-1-.6-.5-1.1-1.1-1.5-1.8-.4-.7-.6-1.6-.6-2.7,0-2,.7-3.6,2.1-4.8,1.4-1.2,3.4-1.8,6.1-1.8s.9,0,1.4,0c.5,0,.9,0,1.4,0,.4,0,.8,0,1.1,0,.3,0,.5,0,.7,0v-.7c0-1.4-.4-2.4-1.3-3-.8-.6-2-.9-3.4-.9s-2.5.2-3.4.6c-.8.4-1.5.8-2.1,1.2l-1.7-2.4c.3-.3.7-.5,1.2-.8.5-.3,1-.5,1.6-.7.6-.2,1.3-.4,2.1-.6.8-.1,1.7-.2,2.7-.2,2.4,0,4.3.6,5.7,1.7,1.4,1.2,2.1,2.8,2.1,5v10.9c0,.7,0,1.2,0,1.7h-3.4v-2.2ZM118.4,25.7c-.1,0-.3,0-.6-.1-.3,0-.7,0-1.1,0-.4,0-.8,0-1.3,0-.5,0-.9,0-1.3,0-1,0-1.8.1-2.5.4-.6.2-1.1.5-1.5.9-.4.4-.6.8-.7,1.2-.1.4-.2.9-.2,1.3,0,1,.3,1.8,1,2.3.7.5,1.7.8,2.9.8s1.4-.1,2-.4c.6-.2,1.2-.6,1.7-1,.5-.4.9-.9,1.2-1.4.3-.5.4-1.1.4-1.6v-2.1Z"></path><path class="st2" d="M126.8,7.8h3.6v10.2c.2-.2.4-.5.8-.8.3-.3.7-.6,1.2-.8.5-.3,1-.5,1.7-.6.6-.2,1.3-.2,2.1-.2,1.4,0,2.6.2,3.7.7,1.1.5,1.9,1.2,2.7,2,.7.9,1.3,1.9,1.6,3.1.4,1.2.5,2.4.5,3.8s-.3,2.8-.8,4.1c-.5,1.2-1.2,2.3-2.1,3.2-.9.9-2,1.6-3.3,2.1-1.3.5-2.7.7-4.3.7s-2.9-.1-4.3-.4c-1.3-.2-2.4-.5-3.2-.8V7.8ZM130.3,31.5c.4.1.8.2,1.4.3.5.1,1.4.2,2.4.2s2-.2,2.8-.5c.8-.3,1.5-.8,2.1-1.4.6-.6,1.1-1.3,1.4-2.2.3-.8.5-1.8.5-2.7s-.1-1.7-.3-2.5c-.2-.8-.5-1.5-1-2.1-.4-.6-1-1.1-1.7-1.4-.7-.4-1.5-.5-2.4-.5s-1.7.2-2.3.5c-.7.3-1.2.7-1.6,1.2-.4.5-.8,1.1-1,1.7-.2.7-.3,1.3-.3,2v7.4Z"></path><path class="st2" d="M148.8,7.8h3.6v26.8h-3.6V7.8Z"></path><path class="st2" d="M174.4,31.8c-.2.2-.5.5-1,.9-.4.4-1,.7-1.7,1.1-.7.3-1.5.7-2.4.9-.9.3-2,.4-3.2.4s-2.8-.2-4-.7c-1.2-.5-2.2-1.2-3.1-2-.9-.9-1.5-1.9-2-3.2-.5-1.2-.7-2.6-.7-4.1s.2-2.6.7-3.8c.5-1.2,1.1-2.2,1.9-3.1.8-.9,1.8-1.6,2.9-2.1,1.1-.5,2.4-.8,3.8-.8s3,.3,4.1.9c1.1.6,2.1,1.4,2.8,2.4.7,1,1.3,2.2,1.6,3.5.3,1.3.5,2.7.5,4.1h-14.7c0,.8.2,1.6.5,2.3.3.7.8,1.3,1.3,1.8.6.5,1.2.9,1.9,1.2.7.3,1.5.4,2.3.4,1.6,0,2.9-.3,3.9-.8,1-.5,1.8-1.1,2.2-1.6l2,2.2ZM171.1,23.6c-.1-1.4-.6-2.7-1.5-3.7-.9-1-2.2-1.5-3.9-1.5s-1.6.1-2.3.4c-.7.3-1.3.7-1.7,1.2-.5.5-.9,1-1.1,1.7-.3.6-.4,1.3-.4,1.9h11Z"></path><path class="st6" d="M195.1,32c-.8.9-1.9,1.7-3.1,2.3-1.2.6-2.6.9-4.2.9s-2.9-.2-4.1-.7c-1.2-.5-2.2-1.2-3.1-2-.8-.9-1.5-1.9-1.9-3.1-.5-1.2-.7-2.5-.7-4s.2-2.7.7-3.9c.5-1.2,1.2-2.3,2-3.2.9-.9,1.9-1.6,3.1-2.1,1.2-.5,2.5-.8,4-.8s3,.3,4.2.8c1.2.6,2.2,1.3,3.1,2.3l-2.4,2.3c-.6-.7-1.2-1.2-2-1.6-.8-.4-1.8-.6-2.9-.6s-1.8.2-2.6.5c-.8.4-1.4.9-1.9,1.5-.5.6-.9,1.4-1.2,2.2-.3.8-.4,1.7-.4,2.6s.1,1.7.4,2.5c.3.8.7,1.5,1.2,2.2.5.6,1.2,1.1,1.9,1.5.8.4,1.6.6,2.6.6s2.1-.2,3-.6c.9-.4,1.6-1,2.1-1.7l2.2,2.3Z"></path><path class="st6" d="M206.6,35.1c-1.4,0-2.8-.3-4-.8-1.2-.5-2.2-1.2-3.1-2.2-.9-.9-1.6-2-2-3.2-.5-1.2-.7-2.5-.7-3.8s.2-2.6.7-3.8c.5-1.2,1.2-2.2,2-3.2.9-.9,1.9-1.6,3.1-2.1,1.2-.5,2.5-.8,4-.8s2.7.3,3.9.8c1.2.5,2.2,1.2,3.1,2.1.9.9,1.6,2,2.1,3.2.5,1.2.7,2.5.7,3.8s-.2,2.6-.7,3.8c-.5,1.2-1.2,2.2-2.1,3.2-.9.9-1.9,1.6-3.1,2.2-1.2.5-2.5.8-3.9.8ZM206.6,32c1,0,1.8-.2,2.6-.6.8-.4,1.4-.9,2-1.5.5-.6.9-1.4,1.2-2.2.3-.8.4-1.7.4-2.5s-.1-1.7-.4-2.5c-.3-.8-.7-1.5-1.2-2.2-.5-.6-1.2-1.2-2-1.5-.8-.4-1.6-.6-2.6-.6s-1.8.2-2.6.6c-.8.4-1.4.9-2,1.5-.5.6-.9,1.4-1.2,2.2-.3.8-.4,1.7-.4,2.5s.1,1.7.4,2.5c.3.8.7,1.5,1.2,2.2.5.6,1.2,1.2,2,1.5.8.4,1.6.6,2.6.6Z"></path><path class="st6" d="M220.5,20v-2.1c0-.6,0-1.2,0-1.9h3.5v2.8c.3-.3.6-.7,1-1.1.3-.4.8-.7,1.2-1.1.5-.3,1.1-.6,1.7-.8.7-.2,1.4-.3,2.3-.3,1.4,0,2.6.3,3.6.9.9.6,1.7,1.4,2.2,2.5.8-.9,1.7-1.7,2.8-2.3,1.1-.7,2.4-1,4-1,2.4,0,4.2.7,5.3,2.1,1.1,1.4,1.7,3.4,1.7,5.8v11.2h-3.6v-10.9c0-1.7-.3-3-1-3.8-.7-.8-1.7-1.2-3-1.2s-1.4.2-2.1.5c-.6.3-1.2.7-1.6,1.2-.5.5-.8,1.1-1.1,1.8-.3.7-.4,1.4-.4,2.1v10.4h-3.6v-10.9c0-1.7-.3-3-1-3.8-.7-.8-1.7-1.2-2.9-1.2s-1.8.2-2.5.6c-.7.4-1.2,1-1.6,1.7-.4.7-.7,1.5-.9,2.3-.2.9-.3,1.8-.3,2.7v8.7h-3.6v-14.6Z"></path><path class="st6" d="M254.6,20v-2.1c0-.6,0-1.2,0-1.9h3.5v2.6c.3-.2.6-.5.9-.9.3-.3.8-.7,1.3-1,.5-.3,1.1-.6,1.8-.8.7-.2,1.5-.3,2.4-.3,1.4,0,2.7.3,3.8.8,1.1.5,1.9,1.3,2.6,2.2.7.9,1.2,2,1.5,3.1.3,1.2.5,2.4.5,3.7s-.3,3.1-.9,4.4c-.6,1.2-1.3,2.2-2.2,3.1-.9.8-2,1.4-3.1,1.8-1.1.4-2.3.6-3.4.6s-2.3-.1-3-.4c-.8-.3-1.5-.5-2.1-.8v11.7h-3.6v-25.6ZM258.2,30.5c.4.3,1,.7,1.8,1,.8.3,1.8.5,3,.5s1.7-.2,2.5-.5c.8-.3,1.4-.8,2-1.4.5-.6,1-1.3,1.3-2.1.3-.8.4-1.7.4-2.7s-.1-1.8-.3-2.6c-.2-.8-.5-1.5-1-2.1-.4-.6-1-1.1-1.7-1.5-.7-.4-1.6-.5-2.6-.5s-2.4.4-3.3,1.1c-.9.7-1.6,1.7-1.9,3.1-.1.4-.2.9-.2,1.4,0,.5,0,1,0,1.5v4.8Z"></path><path class="st0" d="M33.2,51.1s3.9.4,6.3-2c8.4-8.3-1.5-18.7-1.5-18.7,0,0-4.8,2.2-11.6,3.1-6.8.9-8,1.1-8,1.1,0,0,6.3,12.1,6.9,12.6.6.4,4.3,2.9,4.3,2.9l3.6,1Z"></path><path class="st4" d="M5.3,20.4s-2.2,3.3-1.1,6.5c3.5,11.3,17.3,7.3,17.3,7.3,0,0,.2-5.2,2.6-11.7,2.3-6.5,2.7-7.6,2.7-7.6,0,0-13.7,0-14.3.3-.6.4-4.5,2.5-4.5,2.5l-2.5,2.8Z"></path><path class="st5" d="M45.6,11.2s-1.7-3.5-5.1-4.3c-11.5-2.6-15,11.3-15,11.3,0,0,4.4,2.8,8.9,8.1,4.5,5.3,5.2,6.1,5.2,6.1,0,0,6.9-11.8,6.9-12.5,0-.7.1-5.1.1-5.1l-1.1-3.6Z"></path><path class="st1" d="M33.8,51.2s-15.5-1.8-21.6-6.5c-12.4-9.4-4.2-19.6-1.3-22.4,2.8-2.8,6.6-5.8,6.6-5.8,0,0-1,15.1,4.1,23.1,5.1,8,9.4,10.5,10.2,10.8.9.3,2,.7,2,.7Z"></path><path class="st3" d="M4.9,20.8S13.7,8,20.7,4.7c14.1-6.7,19.3,5.3,20.4,9.2,1.2,3.8,2.1,8.6,2.1,8.6,0,0-12.9-7.9-22.4-7.1-9.4.8-13.6,3.5-14.3,4.1-.7.7-1.6,1.4-1.6,1.4Z"></path><path class="st6" d="M45.4,10.7s6.7,14,6.1,21.7c-1.3,15.5-14.3,14-18.2,13.1-3.9-.9-8.4-2.5-8.4-2.5,0,0,13.3-7.2,17.3-15.8,4-8.6,3.8-13.5,3.6-14.4-.2-.9-.4-2.1-.4-2.1Z"></path><g><path class="st6" d="M270.2,12.4v-2.3h-.7v-.3h1.8v.3h-.7v2.3h-.3Z"></path><path class="st6" d="M273.8,12.4v-2.3l-.8,2.3h-.2l-.8-2.3v2.3h-.3v-2.6h.5l.8,2.1.8-2.1h.5v2.6h-.3Z"></path></g></svg>