<?xml version="1.0" encoding="UTF-8"?>
<svg id="Layer_1" xmlns="http://www.w3.org/2000/svg" version="1.1" viewBox="0 0 2270 399">
  <!-- Generator: Adobe Illustrator 29.3.1, SVG Export Plug-In . SVG Version: 2.1.0 Build 151)  -->
  <defs>
    <style>
      .st0 {
        fill: #3869ac;
      }

      .st1 {
        fill: #3869ad;
      }
    </style>
  </defs>
  <path class="st1" d="M2257.9,82.5l-10.8,30.6h-.3l-10.7-30.6h-11.5v39.9h7.5v-33.3h.2l11.6,33.3h6.1l11.6-33.3h.2v33.3h7.5v-39.9h-11.5ZM2185.4,82.5v6.4h12v33.5h7.6v-33.5h12v-6.4h-31.6Z"/>
  <path class="st1" d="M2063.5,92.3h26l90.6,211.6h-33.5l-21.2-52.3h-100.7l-20.9,52.3h-33.5l93.2-211.6ZM2114.9,226.5l-39.4-97.1h-.6l-40,97.1h80.1Z"/>
  <path class="st1" d="M1843.6,119.2h-68.1v-26.9h165v26.9h-68.1v184.7h-28.7V119.2Z"/>
  <path class="st1" d="M1629,92.3h26l90.5,211.6h-33.5l-21.2-52.3h-100.7l-20.9,52.3h-33.5l93.2-211.6ZM1680.4,226.5l-39.5-97.1h-.6l-40,97.1h80.1Z"/>
  <path class="st1" d="M1282.7,92.3h73.8c14.9,0,28,1.7,39.3,5.1,11.3,3.4,21,7.9,29.3,13.6,8.3,5.7,15.1,12.2,20.6,19.6,5.5,7.4,9.8,15,13,22.7,3.2,7.8,5.5,15.5,6.9,23.3,1.4,7.8,2.1,15,2.1,21.5,0,13.5-2.5,26.6-7.5,39.3-5,12.7-12.4,23.9-22.1,33.8-9.8,9.9-21.9,17.8-36.3,23.8-14.5,6-31.1,9-50.1,9h-69V92.3ZM1311.3,277h36.2c12.1,0,23.7-1.6,34.5-4.9,10.8-3.3,20.4-8.2,28.5-14.8,8.2-6.6,14.6-14.8,19.4-24.7,4.8-9.9,7.2-21.4,7.2-34.5s-1.1-14.7-3.3-23.8c-2.2-9.1-6.3-17.7-12.4-25.8-6.1-8.2-14.5-15.1-25.3-20.8-10.7-5.7-24.7-8.5-41.8-8.5h-43v157.8Z"/>
  <path class="st1" d="M1131.5,303.9h-21.5v-91.1l-79.2-120.4h26.9l63,99.8,63.1-99.8h26.9l-79.2,120.4v91.1Z"/>
  <path class="st1" d="M854.1,284.2h113.3v19.7h-134.8V92.3h131.2v19.7h-109.7v72h102.5v19.7h-102.5v80.4Z"/>
  <path class="st1" d="M612.1,184.1h3l99.5-91.7h30.8l-106.7,95.9,112.7,115.7h-31.7l-104-109.1h-3.6v109.1h-21.5V92.3h21.5v91.7Z"/>
  <rect class="st0" x="6.2" y="164" width="73.4" height="158.8" rx="36.6" ry="36.6"/>
  <rect class="st0" x="104.1" y="102.8" width="73.4" height="250.9" rx="36.6" ry="36.6"/>
  <rect class="st0" x="202.3" y="41.6" width="73.4" height="275.3" rx="36.6" ry="36.6"/>
  <rect class="st0" x="299.9" y="53.9" width="73.4" height="318.2" rx="36.6" ry="36.6"/>
  <rect class="st0" x="397.5" y="5" width="73.4" height="391.5" rx="36.6" ry="36.6"/>
</svg>