<?xml version="1.0" encoding="UTF-8"?>
<svg xmlns="http://www.w3.org/2000/svg" id="Layer_1" x="0px" y="0px"
     viewBox="0 0 1519.42 535.03" style="enable-background:new 0 0 1519.42 535.03;" xml:space="preserve"> <style
        type="text/css"> .st0{fill:#81C2E5;} .st1{fill:#F7A88E;} .st2{fill:#F1DEDB;} .st3{fill:#4B4180;} .st4{fill:#F26845;} .st5{fill:#4D7BC4;} .st6{fill:#B93B96;} .st7{fill:#84D2F8;} .st8{fill:#1E1643;} .st9{fill:none;stroke:#4B4180;stroke-width:8.0387;stroke-miterlimit:10;} .st10{fill:none;stroke:#4B4180;stroke-width:7.6801;stroke-miterlimit:10;} .st11{fill:none;stroke:#FFFFFF;stroke-width:7.6801;stroke-miterlimit:10;} .st12{fill:#FFFFFF;} .st13{fill:#F1DED7;} .st14{fill:none;stroke:#84D2F8;stroke-width:2.4697;stroke-miterlimit:10;} .st15{fill:none;stroke:#4B4180;stroke-width:1.1601;stroke-miterlimit:10;} .st16{fill:none;} </style>
    <g> <g> <g> <g> <g> <path class="st8"
                              d="M226.8,311.41L226.8,311.41c-11.87-11.8-25.98-21.14-41.94-27.77c-15.96-6.62-33.76-9.98-52.88-9.98 c-19.13,0-36.98,3.36-53.07,9.98c-16.1,6.63-30.21,15.98-41.95,27.78C25.2,323.23,16,337.22,9.62,353 C3.24,368.77,0,386.04,0,404.34c0,18.3,3.24,35.58,9.62,51.34c6.38,15.78,15.58,29.77,27.33,41.58 c11.75,11.81,25.86,21.15,41.96,27.78c16.09,6.62,33.94,9.98,53.07,9.98c19.12,0,36.92-3.36,52.88-9.98 c15.96-6.63,30.07-15.97,41.94-27.77c11.88-11.8,21.14-25.8,27.53-41.59c6.38-15.78,9.62-33.05,9.62-51.34 c0-18.28-3.24-35.56-9.62-51.34C247.94,337.21,238.68,323.22,226.8,311.41z M131.97,494.64c-17.2,0-32.54-3.99-45.59-11.85 c-13.07-7.87-23.42-18.7-30.75-32.2c-7.35-13.51-11.08-29.07-11.08-46.26c0-17.18,3.73-32.75,11.08-46.26 c7.33-13.49,17.68-24.32,30.75-32.2c13.06-7.86,28.4-11.85,45.59-11.85c16.94,0,32.15,3.99,45.21,11.85 c13.07,7.87,23.48,18.71,30.94,32.2c7.47,13.51,11.26,29.08,11.26,46.25c0,16.94-3.79,32.45-11.26,46.07v0 c-7.47,13.62-17.88,24.52-30.94,32.38C164.13,490.65,148.92,494.64,131.97,494.64z"/>
        <path class="st8"
              d="M440.5,346.84L440.5,346.84c-10.09-7.08-24.44-10.66-42.66-10.66c-14.4,0-27.69,3.51-39.52,10.42 c-10.33,6.04-18.61,12.97-24.66,20.64v-27.11h-41.89v191.31h41.89v-115.6c0-7.83,2.23-15.08,6.63-21.53 c4.43-6.49,10.54-11.79,18.18-15.74c7.64-3.96,16.54-5.96,26.52-5.96c10.57-0.69,18.88,0.92,24.7,4.81 c5.82,3.89,10,9.35,12.43,16.22c2.48,7.02,3.73,15.09,3.73,23.99v113.8h41.89V415.12c0-14.44-2.01-27.76-5.97-39.59 C457.73,363.57,450.58,353.92,440.5,346.84z"/>
        <path class="st8"
              d="M686.77,403.81c-6.41-4.77-13.36-8.53-20.69-11.18c9.91-5,17.62-11.68,22.92-19.91 c5.83-9.04,8.78-19.43,8.78-30.9c0-20.92-6.83-37.1-20.29-48.1c-13.39-10.93-33.4-16.47-59.5-16.47H505.43v254.19h116.36 c10.47,0,21.07-1.16,31.52-3.44c10.52-2.3,20.28-6.29,29-11.86c8.78-5.6,15.98-13.38,21.4-23.11 c5.42-9.73,8.17-22.16,8.17-36.94c0-12.14-2.36-22.63-7.02-31.18C700.21,416.39,694.12,409.29,686.77,403.81z M642.54,372.72 c-7.74,5.57-16.78,8.51-26.84,8.73h-66.47v-64.18h61.9c12.13,0,22.47,2.53,30.74,7.53c8.16,4.94,12.12,12.97,12.12,24.56 C653.98,359.54,650.24,367.18,642.54,372.72z M549.23,421.48h68.37c7.71,0,15.47,1.07,23.07,3.18 c7.5,2.09,13.91,5.61,19.06,10.47c5.03,4.74,7.58,11.55,7.58,20.23c0,12.33-4.29,21.2-13.12,27.1 c-8.88,5.93-20.55,8.94-34.69,8.94h-70.28V421.48z"/>
        <path class="st8"
              d="M886.58,348.91c-15.49-8.45-33.07-12.74-52.25-12.74c-19.18,0-36.82,4.28-52.43,12.74 c-15.63,8.46-28.17,20.29-37.26,35.15c-9.1,14.87-13.72,32.21-13.72,51.54s4.62,36.67,13.72,51.54 c9.09,14.87,21.63,26.69,37.26,35.15c15.6,8.45,33.24,12.74,52.43,12.74c19.18,0,36.76-4.29,52.25-12.74 c15.5-8.46,27.97-20.28,37.06-35.15c9.1-14.88,13.72-32.22,13.72-51.54c0-19.32-4.62-36.66-13.72-51.54 C914.55,369.2,902.08,357.38,886.58,348.91z M865.27,490.51c-9.14,5.36-19.55,8.08-30.94,8.08c-11.4,0-21.87-2.72-31.14-8.09 c-9.27-5.36-16.66-12.87-21.98-22.32c-5.32-9.44-7.89-20.4-7.64-32.61c-0.25-12.4,2.32-23.47,7.64-32.92 c5.31-9.44,12.7-16.89,21.97-22.13c9.28-5.25,19.76-7.91,31.15-7.91c11.39,0,21.8,2.66,30.95,7.91 c9.14,5.24,16.46,12.69,21.79,22.14c5.31,9.44,7.88,20.52,7.64,32.97c0.24,12.16-2.33,23.12-7.64,32.56 C881.75,477.64,874.41,485.15,865.27,490.51z"/>
        <path class="st8"
              d="M1112.56,340.12v22.58c-6.12-6.66-13.96-12.62-23.36-17.74c-10.68-5.84-23.26-8.78-37.38-8.78 c-18.94,0-36.06,4.22-50.93,12.56c-14.88,8.34-26.7,20.12-35.16,35c-8.46,14.86-12.74,32.18-12.74,51.49 c0,19.32,4.16,36.7,12.34,51.67c8.2,15,19.44,26.88,33.42,35.36c13.98,8.46,29.66,12.76,46.59,12.76 c15.9,0,30.1-3.56,42.19-10.6c10.58-6.14,18.98-12.76,25.04-19.72v26.72h42.29v-191.3H1112.56z M1106.62,467.5 c-4.94,9.46-11.96,17.02-20.84,22.48c-8.88,5.48-19.42,8.26-31.3,8.26c-11.38,0-21.64-2.78-30.52-8.26 c-8.9-5.46-15.9-13.04-20.86-22.48c-4.94-9.46-7.46-20.3-7.46-32.26c0-11.94,2.52-22.72,7.46-32.06 c4.94-9.32,11.96-16.76,20.84-22.12c8.9-5.36,19.16-8.08,30.54-8.08c11.88,0,22.42,2.78,31.3,8.24 c8.88,5.48,15.9,12.98,20.86,22.32c4.94,9.34,7.46,20.02,7.46,31.7C1114.1,447.18,1111.58,458.04,1106.62,467.5z"/>
        <path class="st8"
              d="M1319.76,339.9c-5.24-2.47-12.74-3.72-22.28-3.72c-12.65,0-24.87,3.82-36.34,11.36 c-9.87,6.49-17.68,14.61-23.27,24.19v-31.59h-42.27v191.31h42.27V425.9c0-9.73,2.54-18.24,7.56-25.28 c5.05-7.09,11.49-12.64,19.13-16.47c7.64-3.84,15.52-5.79,23.4-5.79c3.93,0,7.74,0.41,11.32,1.23 c3.58,0.82,6.63,1.81,9.06,2.96l1.45,0.69l10.96-42.87L1319.76,339.9z"/>
        <path class="st8"
              d="M1477.47,270.23v91.59c-6.46-6.5-14.98-12.3-25.34-17.24c-11.68-5.58-24.88-8.4-39.22-8.4 c-17.92,0-34.3,4.3-48.67,12.76c-14.36,8.46-25.92,20.3-34.38,35.16c-8.44,14.86-12.74,32.18-12.74,51.51 c0,19.06,4.3,36.32,12.74,51.31c8.46,15,20.16,26.88,34.76,35.36c14.62,8.46,31.24,12.74,49.43,12.74 c14.64,0,27.92-3.26,39.51-9.68c10.06-5.6,18.1-11.7,23.92-18.18v24.28h41.89V270.23H1477.47z M1471.51,468.77 c-4.94,9.8-11.96,17.6-20.84,23.2c-8.88,5.58-19.4,8.42-31.28,8.42c-11.62,0-22.02-2.84-30.9-8.42 c-8.9-5.6-15.98-13.4-21.06-23.2c-5.08-9.82-7.66-20.98-7.66-33.16c0-12.42,2.58-23.64,7.66-33.34 c5.08-9.68,12.16-17.42,21.06-23.02c8.88-5.6,19.28-8.42,30.9-8.42c11.88,0,22.4,2.82,31.28,8.42 c8.88,5.58,15.9,13.32,20.84,23c4.96,9.72,7.48,20.94,7.48,33.36C1478.99,447.79,1476.47,458.95,1471.51,468.77z"/> </g>
        <g> <g> <circle class="st5" cx="1122.93" cy="110.17" r="108.19"/> </g>
            <g> <g> <polygon class="st4" points="1519.42,110.17 1375.28,0 1375.28,220.35 "/> </g> </g>
            <g> <path class="st6"
                      d="M1265.1,0L1265.1,0h-33.99v220.35h33.99h0c60.85,0,110.17-49.33,110.17-110.17v0 C1375.28,49.33,1325.95,0,1265.1,0z"/> </g> </g> </g> </g> </g> </g> </svg>